<mxfile host="app.diagrams.net" agent="Mozilla/5.0 (Windows NT 10.0; Win64; x64) AppleWebKit/537.36 (KHTML, like Gecko) Chrome/134.0.0.0 Safari/537.36" version="26.1.1">
  <diagram name="PÃ¡gina-1" id="GAmBX5XdB7C1Lb6O9oHI">
    <mxGraphModel dx="1050" dy="557" grid="1" gridSize="10" guides="1" tooltips="1" connect="1" arrows="1" fold="1" page="1" pageScale="1" pageWidth="827" pageHeight="1169" math="0" shadow="0">
      <root>
        <mxCell id="0" />
        <mxCell id="1" parent="0" />
        <mxCell id="_7Mrup7gPq9dJxEVc8V3-1" value="" style="shape=umlLifeline;perimeter=lifelinePerimeter;whiteSpace=wrap;html=1;container=1;dropTarget=0;collapsible=0;recursiveResize=0;outlineConnect=0;portConstraint=eastwest;newEdgeStyle={&quot;curved&quot;:0,&quot;rounded&quot;:0};participant=umlActor;" vertex="1" parent="1">
          <mxGeometry x="60" y="160" width="20" height="640" as="geometry" />
        </mxCell>
        <mxCell id="_7Mrup7gPq9dJxEVc8V3-29" value="" style="html=1;points=[[0,0,0,0,5],[0,1,0,0,-5],[1,0,0,0,5],[1,1,0,0,-5]];perimeter=orthogonalPerimeter;outlineConnect=0;targetShapes=umlLifeline;portConstraint=eastwest;newEdgeStyle={&quot;curved&quot;:0,&quot;rounded&quot;:0};" vertex="1" parent="_7Mrup7gPq9dJxEVc8V3-1">
          <mxGeometry x="5" y="50" width="10" height="340" as="geometry" />
        </mxCell>
        <mxCell id="_7Mrup7gPq9dJxEVc8V3-2" value="Langilea" style="text;html=1;align=center;verticalAlign=middle;whiteSpace=wrap;rounded=0;" vertex="1" parent="1">
          <mxGeometry x="40" y="120" width="60" height="30" as="geometry" />
        </mxCell>
        <mxCell id="_7Mrup7gPq9dJxEVc8V3-3" value=":Interfazea" style="shape=umlLifeline;perimeter=lifelinePerimeter;whiteSpace=wrap;html=1;container=1;dropTarget=0;collapsible=0;recursiveResize=0;outlineConnect=0;portConstraint=eastwest;newEdgeStyle={&quot;curved&quot;:0,&quot;rounded&quot;:0};" vertex="1" parent="1">
          <mxGeometry x="180" y="120" width="100" height="670" as="geometry" />
        </mxCell>
        <mxCell id="_7Mrup7gPq9dJxEVc8V3-30" value="" style="html=1;points=[[0,0,0,0,5],[0,1,0,0,-5],[1,0,0,0,5],[1,1,0,0,-5]];perimeter=orthogonalPerimeter;outlineConnect=0;targetShapes=umlLifeline;portConstraint=eastwest;newEdgeStyle={&quot;curved&quot;:0,&quot;rounded&quot;:0};" vertex="1" parent="_7Mrup7gPq9dJxEVc8V3-3">
          <mxGeometry x="45" y="90" width="10" height="290" as="geometry" />
        </mxCell>
        <mxCell id="_7Mrup7gPq9dJxEVc8V3-4" value=":Kontrol" style="shape=umlLifeline;perimeter=lifelinePerimeter;whiteSpace=wrap;html=1;container=1;dropTarget=0;collapsible=0;recursiveResize=0;outlineConnect=0;portConstraint=eastwest;newEdgeStyle={&quot;curved&quot;:0,&quot;rounded&quot;:0};" vertex="1" parent="1">
          <mxGeometry x="340" y="120" width="100" height="680" as="geometry" />
        </mxCell>
        <mxCell id="_7Mrup7gPq9dJxEVc8V3-31" value="" style="html=1;points=[[0,0,0,0,5],[0,1,0,0,-5],[1,0,0,0,5],[1,1,0,0,-5]];perimeter=orthogonalPerimeter;outlineConnect=0;targetShapes=umlLifeline;portConstraint=eastwest;newEdgeStyle={&quot;curved&quot;:0,&quot;rounded&quot;:0};" vertex="1" parent="_7Mrup7gPq9dJxEVc8V3-4">
          <mxGeometry x="45" y="100" width="10" height="240" as="geometry" />
        </mxCell>
        <mxCell id="_7Mrup7gPq9dJxEVc8V3-5" value=":Mantenua" style="shape=umlLifeline;perimeter=lifelinePerimeter;whiteSpace=wrap;html=1;container=1;dropTarget=0;collapsible=0;recursiveResize=0;outlineConnect=0;portConstraint=eastwest;newEdgeStyle={&quot;curved&quot;:0,&quot;rounded&quot;:0};" vertex="1" parent="1">
          <mxGeometry x="500" y="120" width="100" height="680" as="geometry" />
        </mxCell>
        <mxCell id="_7Mrup7gPq9dJxEVc8V3-32" value="" style="html=1;points=[[0,0,0,0,5],[0,1,0,0,-5],[1,0,0,0,5],[1,1,0,0,-5]];perimeter=orthogonalPerimeter;outlineConnect=0;targetShapes=umlLifeline;portConstraint=eastwest;newEdgeStyle={&quot;curved&quot;:0,&quot;rounded&quot;:0};" vertex="1" parent="_7Mrup7gPq9dJxEVc8V3-5">
          <mxGeometry x="45" y="120" width="10" height="70" as="geometry" />
        </mxCell>
        <mxCell id="_7Mrup7gPq9dJxEVc8V3-33" value="" style="html=1;points=[[0,0,0,0,5],[0,1,0,0,-5],[1,0,0,0,5],[1,1,0,0,-5]];perimeter=orthogonalPerimeter;outlineConnect=0;targetShapes=umlLifeline;portConstraint=eastwest;newEdgeStyle={&quot;curved&quot;:0,&quot;rounded&quot;:0};" vertex="1" parent="_7Mrup7gPq9dJxEVc8V3-5">
          <mxGeometry x="45" y="230" width="10" height="70" as="geometry" />
        </mxCell>
        <mxCell id="_7Mrup7gPq9dJxEVc8V3-6" value="" style="endArrow=open;html=1;rounded=0;endFill=0;" edge="1" parent="1">
          <mxGeometry width="50" height="50" relative="1" as="geometry">
            <mxPoint x="69.5" y="220" as="sourcePoint" />
            <mxPoint x="229.5" y="220" as="targetPoint" />
          </mxGeometry>
        </mxCell>
        <mxCell id="_7Mrup7gPq9dJxEVc8V3-7" value="Mantenuaren id-a sartu" style="edgeLabel;html=1;align=center;verticalAlign=middle;resizable=0;points=[];" vertex="1" connectable="0" parent="_7Mrup7gPq9dJxEVc8V3-6">
          <mxGeometry x="-0.1488" y="2" relative="1" as="geometry">
            <mxPoint as="offset" />
          </mxGeometry>
        </mxCell>
        <mxCell id="_7Mrup7gPq9dJxEVc8V3-8" value="" style="endArrow=open;html=1;rounded=0;endFill=0;" edge="1" parent="1">
          <mxGeometry width="50" height="50" relative="1" as="geometry">
            <mxPoint x="230" y="240" as="sourcePoint" />
            <mxPoint x="390" y="240" as="targetPoint" />
          </mxGeometry>
        </mxCell>
        <mxCell id="_7Mrup7gPq9dJxEVc8V3-9" value="mantenuaBilatu(id)" style="edgeLabel;html=1;align=center;verticalAlign=middle;resizable=0;points=[];" vertex="1" connectable="0" parent="_7Mrup7gPq9dJxEVc8V3-8">
          <mxGeometry x="-0.005" relative="1" as="geometry">
            <mxPoint as="offset" />
          </mxGeometry>
        </mxCell>
        <mxCell id="_7Mrup7gPq9dJxEVc8V3-10" value="" style="endArrow=open;html=1;rounded=0;endFill=0;" edge="1" parent="1">
          <mxGeometry width="50" height="50" relative="1" as="geometry">
            <mxPoint x="390" y="260" as="sourcePoint" />
            <mxPoint x="549.5" y="260" as="targetPoint" />
          </mxGeometry>
        </mxCell>
        <mxCell id="_7Mrup7gPq9dJxEVc8V3-11" value="mantenuaExists" style="edgeLabel;html=1;align=center;verticalAlign=middle;resizable=0;points=[];" vertex="1" connectable="0" parent="_7Mrup7gPq9dJxEVc8V3-10">
          <mxGeometry x="-0.1774" y="-5" relative="1" as="geometry">
            <mxPoint x="14" y="-5" as="offset" />
          </mxGeometry>
        </mxCell>
        <mxCell id="_7Mrup7gPq9dJxEVc8V3-12" value="" style="endArrow=none;dashed=1;html=1;rounded=0;startArrow=open;startFill=0;" edge="1" parent="1" source="_7Mrup7gPq9dJxEVc8V3-4">
          <mxGeometry width="50" height="50" relative="1" as="geometry">
            <mxPoint x="400" y="290" as="sourcePoint" />
            <mxPoint x="549.5" y="290" as="targetPoint" />
          </mxGeometry>
        </mxCell>
        <mxCell id="_7Mrup7gPq9dJxEVc8V3-13" value="exists" style="edgeLabel;html=1;align=center;verticalAlign=middle;resizable=0;points=[];" vertex="1" connectable="0" parent="_7Mrup7gPq9dJxEVc8V3-12">
          <mxGeometry x="-0.1488" y="4" relative="1" as="geometry">
            <mxPoint as="offset" />
          </mxGeometry>
        </mxCell>
        <mxCell id="_7Mrup7gPq9dJxEVc8V3-14" value="" style="endArrow=none;dashed=1;html=1;rounded=0;startArrow=open;startFill=0;" edge="1" parent="1">
          <mxGeometry width="50" height="50" relative="1" as="geometry">
            <mxPoint x="230" y="310" as="sourcePoint" />
            <mxPoint x="389.5" y="310" as="targetPoint" />
          </mxGeometry>
        </mxCell>
        <mxCell id="_7Mrup7gPq9dJxEVc8V3-16" value="[e==false]mezua itzuli" style="edgeLabel;html=1;align=center;verticalAlign=middle;resizable=0;points=[];" vertex="1" connectable="0" parent="_7Mrup7gPq9dJxEVc8V3-14">
          <mxGeometry x="-0.0897" y="-4" relative="1" as="geometry">
            <mxPoint y="-14" as="offset" />
          </mxGeometry>
        </mxCell>
        <mxCell id="_7Mrup7gPq9dJxEVc8V3-17" value="" style="endArrow=none;dashed=1;html=1;rounded=0;startArrow=open;startFill=0;" edge="1" parent="1">
          <mxGeometry width="50" height="50" relative="1" as="geometry">
            <mxPoint x="70" y="330" as="sourcePoint" />
            <mxPoint x="229.5" y="330" as="targetPoint" />
          </mxGeometry>
        </mxCell>
        <mxCell id="_7Mrup7gPq9dJxEVc8V3-19" value="Id hori duen mantenurik&lt;div&gt;ez da existitzen&lt;/div&gt;" style="edgeLabel;html=1;align=center;verticalAlign=middle;resizable=0;points=[];" vertex="1" connectable="0" parent="_7Mrup7gPq9dJxEVc8V3-17">
          <mxGeometry x="-0.0395" relative="1" as="geometry">
            <mxPoint as="offset" />
          </mxGeometry>
        </mxCell>
        <mxCell id="_7Mrup7gPq9dJxEVc8V3-20" value="" style="endArrow=open;html=1;rounded=0;endFill=0;" edge="1" parent="1">
          <mxGeometry width="50" height="50" relative="1" as="geometry">
            <mxPoint x="389.5" y="360" as="sourcePoint" />
            <mxPoint x="549.5" y="360" as="targetPoint" />
          </mxGeometry>
        </mxCell>
        <mxCell id="_7Mrup7gPq9dJxEVc8V3-21" value="[e==true]&lt;div&gt;kudeatu(id, egoera,&amp;nbsp;&lt;/div&gt;&lt;div&gt;mantenuData)&lt;/div&gt;" style="edgeLabel;html=1;align=center;verticalAlign=middle;resizable=0;points=[];" vertex="1" connectable="0" parent="_7Mrup7gPq9dJxEVc8V3-20">
          <mxGeometry x="-0.1238" relative="1" as="geometry">
            <mxPoint as="offset" />
          </mxGeometry>
        </mxCell>
        <mxCell id="_7Mrup7gPq9dJxEVc8V3-23" value="" style="endArrow=none;dashed=1;html=1;rounded=0;startArrow=open;startFill=0;" edge="1" parent="1">
          <mxGeometry width="50" height="50" relative="1" as="geometry">
            <mxPoint x="390" y="410" as="sourcePoint" />
            <mxPoint x="550" y="410" as="targetPoint" />
          </mxGeometry>
        </mxCell>
        <mxCell id="_7Mrup7gPq9dJxEVc8V3-24" value="egoera eta mantenu&amp;nbsp;&lt;div&gt;data save&lt;/div&gt;" style="edgeLabel;html=1;align=center;verticalAlign=middle;resizable=0;points=[];" vertex="1" connectable="0" parent="_7Mrup7gPq9dJxEVc8V3-23">
          <mxGeometry x="-0.0925" y="1" relative="1" as="geometry">
            <mxPoint as="offset" />
          </mxGeometry>
        </mxCell>
        <mxCell id="_7Mrup7gPq9dJxEVc8V3-25" value="" style="endArrow=none;dashed=1;html=1;rounded=0;startArrow=open;startFill=0;" edge="1" parent="1">
          <mxGeometry width="50" height="50" relative="1" as="geometry">
            <mxPoint x="229.5" y="430" as="sourcePoint" />
            <mxPoint x="389.5" y="430" as="targetPoint" />
          </mxGeometry>
        </mxCell>
        <mxCell id="_7Mrup7gPq9dJxEVc8V3-26" value="aldaketaren mezua itzuli" style="edgeLabel;html=1;align=center;verticalAlign=middle;resizable=0;points=[];" vertex="1" connectable="0" parent="_7Mrup7gPq9dJxEVc8V3-25">
          <mxGeometry x="-0.0738" y="1" relative="1" as="geometry">
            <mxPoint x="7" as="offset" />
          </mxGeometry>
        </mxCell>
        <mxCell id="_7Mrup7gPq9dJxEVc8V3-27" value="" style="endArrow=none;dashed=1;html=1;rounded=0;startArrow=open;startFill=0;" edge="1" parent="1">
          <mxGeometry width="50" height="50" relative="1" as="geometry">
            <mxPoint x="70" y="440" as="sourcePoint" />
            <mxPoint x="230" y="440" as="targetPoint" />
          </mxGeometry>
        </mxCell>
        <mxCell id="_7Mrup7gPq9dJxEVc8V3-28" value="egoera eta mantenu data&amp;nbsp;&lt;div&gt;aldatu egin dira&lt;/div&gt;" style="edgeLabel;html=1;align=center;verticalAlign=middle;resizable=0;points=[];" vertex="1" connectable="0" parent="_7Mrup7gPq9dJxEVc8V3-27">
          <mxGeometry x="-0.0738" y="1" relative="1" as="geometry">
            <mxPoint x="7" as="offset" />
          </mxGeometry>
        </mxCell>
      </root>
    </mxGraphModel>
  </diagram>
</mxfile>
